<svg xmlns="http://www.w3.org/2000/svg" viewBox="0 0 1024 1024" aria-hidden="true">
    <symbol id="python_tutor">
        <path
            d="M156 158.5c-16.4 3.6-30.2 11.6-41.6 23.8-15.5 16.6-22.9 38.9-20.3 61.4 3.5 31.1 25.2 56.9 55.9 66.5 6.4 1.9 9.6 2.3 21.5 2.3s15.1-.4 21.5-2.3c26.7-8.4 46-27.6 53.3-53.2 4.8-16.5 4.4-31.4-1.2-47.6-4.2-12.2-8.4-18.7-19.1-29.4-10.7-10.7-19.9-16.3-33-20-9.8-2.8-27.9-3.6-37-1.5zM496.4 319.7c-9.9 15.2-18.1 28-18.4 28.4-.3.5-14.5 2-31.5 3.4s-31.2 2.9-31.5 3.4c-.3.4-11.1 14.3-24 30.9l-23.4 30.1-27.6 11.5c-15.2 6.4-28.4 11.8-29.2 12.1-1.2.5-13.2-13-45.4-50.9L221.6 337h-43.8c-34.2 0-44 .3-44.3 1.2-.2.7-3.1 56.2-6.5 123.3-3.3 67.1-6.3 126.4-6.6 131.7l-.7 9.8H309l.2 82.2.3 82.3 34.8.3 34.7.2V548H232v-65.6c0-40.4.4-65.4.9-65.2.8.3 43.1 39.6 67.2 62.6 7 6.7 7.9 7.2 10.3 6.2 1.4-.5 2.6-.7 2.6-.4 0 .3-2.1 3.2-4.7 6.5-2.5 3.3-4.4 6.1-4.2 6.3.8.6 128.3-10.4 129-11.2 5.2-5.7 110.3-142.1 110.3-143.2.1-1.7-27.5-52-28.5-52-.4 0-8.7 12.4-18.5 27.7zm17.4 42c-.8 1-20.5 26.3-43.8 56.3-23.3 30-42.9 55.1-43.6 55.9-.9 1-13.2 2.3-47.1 5.1-25.2 2.1-45.9 3.6-46 3.5-.2-.1 1.1-2 2.9-4.3 3-3.9 5-4.8 36.2-17.8 18.2-7.6 33.5-14.1 33.9-14.4.5-.4-2.6-9-6.7-19-4.2-10-7.6-18.8-7.6-19.4 0-1.8 30-40.1 31.7-40.5 2.7-.6 79.5-6.8 85.7-7 5.5-.1 5.8 0 4.4 1.6z"
            fill="currentColor" fill-rule="evenodd" />
        <path
            d="M428.6 369c-4.9 1.5-6.6 3.8-6.6 9.2v4.8h8c6.4 0 8 .3 8 1.5 0 1.3-2.1 1.5-13.3 1.5-15.3 0-16.6.5-19.3 7.5-1.2 3.3-1.5 6.3-1.2 10.8.9 10.3 4.4 14.7 11.8 14.7 2.9 0 3-.2 3-4.5 0-4.9 2-10.7 4.1-12.1.8-.5 7.2-1.1 14.2-1.4 16.7-.6 16.7-.6 16.7-16.1 0-12.4-.8-13.9-7.7-15.8-4.5-1.3-13.6-1.3-17.7-.1zm2.4 5.6c1.1 1.2 1 1.8-.3 3.1-.8.9-2.3 1.3-3.1 1-1.9-.8-2.1-4.3-.3-5 2-.9 2.4-.8 3.7.9z"
            fill="currentColor" fill-rule="evenodd" />
        <path
            d="M457 389.5c0 4.9-2 10.7-4.1 12.1-.8.5-7.2 1.1-14.2 1.4-16.7.6-16.7.6-16.7 16.1 0 9.5.3 11.2 1.9 12.8 2.9 2.9 9.7 4.4 17.4 3.8 9.5-.6 12.1-2.7 12.5-9.6l.3-5.1h-8c-6.5 0-8.1-.3-8.1-1.5 0-1.3 2.1-1.5 13.3-1.5 15.3 0 16.6-.5 19.3-7.5 1.9-5.1 1.6-15-.7-19.8-1.5-3.4-5.6-5.7-9.9-5.7-2.9 0-3 .1-3 4.5zm-7.2 38.1c.4 2.7-2.6 4-4.6 2-1.3-1.3-1.3-1.8-.2-3.1 1.8-2.1 4.4-1.5 4.8 1.1zM19.7 401c-10.4 2.7-19 5-19.2 5.2-.2.2 13.7 56.5 30.8 125L62.5 656l15.5.2 15.6.3L73.8 700c-10.8 23.9-19.6 43.9-19.4 44.5.4 1.4 22.9 11.5 23.7 10.7.4-.4 10.7-22.9 23-50l22.3-49.2h67.1l21.8 49.9 21.9 49.9 12.1-5.4c6.7-3 12.1-5.7 12-6.1-.1-.5-8.7-20.4-19.2-44.3l-19-43.5 13.9-.3 14-.3V615l-77.2-.2-77.2-.3-27.2-108.8c-14.9-59.9-27.3-108.9-27.5-109.1-.2-.2-8.9 1.8-19.2 4.4zM873 412c-11 1.6-22.3 5.6-30.3 11-17.8 11.9-25.5 28.4-31.8 68.1l-1.1 6.5-7.1 1.8c-20.8 5.3-36.9 17.9-42.7 33.3-8.5 22.8 3.7 46.4 25.9 49.9l4.4.7-.7-5.4c-2.2-17.4 6.3-44.8 18.2-58.8l2.9-3.5 1.8 7.4c5.4 22 21.9 42.2 43 52.6 13.2 6.5 19.5 7.9 35.5 7.9 15.9 0 22.1-1.4 35.5-7.9 20-9.6 34.8-26.3 41.9-47.5l2.2-6.3 4.8 10.1c6 12.8 9.5 26.5 10.3 40.3l.6 10.8h2.6c1.4 0 5.7-.7 9.4-1.5 24.4-5.1 32-24.1 19.7-49.1-7.3-15-23.6-29.5-38.6-34.3l-7.1-2.2-1.2-8.2c-2-13.2-3.9-19.6-9.1-30.2-11.3-23.1-30.4-38.3-55.1-44-8.6-1.9-25.4-2.7-33.9-1.5zm26 89.3c5.9.8 23.2.2 39.4-1.4 11-1 11.6-.8 11.6 4.6 0 1.6-.7 6.1-1.5 10-4.6 21.7-21.8 39.5-43.6 45.1-13.3 3.4-31.4.6-44.4-7.1-7.5-4.4-16.6-14.2-20.8-22.6-6.5-12.8-8.8-26.1-4.8-27.4 3-.9 11.4-10.6 14.7-16.9 1.6-3.1 3.4-5.6 4-5.6 2.4 0 6.4 13.4 6.4 21.6 0 1.9.5 3.4 1 3.4 2.7 0 7.9-3.1 11.8-7.1 4.3-4.4 14.2-18.3 17.8-24.9l1.9-3.5.5 15.5.5 15.5 5.5.8zM569.5 414.4c-12.2 2.8-26.4 10-40.2 20.6-4.3 3.2-8.8 7.4-10.1 9.3-3.4 5.1-3.8 12.4-1.3 23.3 1.1 5.1 2.5 15 3 22 1.5 18.7 5.4 29.4 15.6 42.9 14.9 19.5 36.4 29.4 61.8 28.3 20.1-.9 34.2-7.2 48.7-21.8 15.4-15.5 20.4-28.3 22.3-58 1.8-28.5 1.6-37.4-1.2-43.8-3.6-8.1-10.3-13.5-19.8-16-21.8-5.8-66.4-9.6-78.8-6.8zm17 60.8c-2.7 4.7-3.3 8.3-1.2 7.5 8.6-3.2 23.8-5.7 35.2-5.7 8.5 0 26.7 1.9 28.5 3 2 1.2 2.3 11.9.6 20-5.4 25.6-27.7 44-53.3 44-19.6 0-39.3-12.1-47.9-29.5-6.6-13.4-8.4-33.5-3.1-34.9 3.7-1 10-.7 15.7.8l5.4 1.4 10.6-5.3c5.8-3 10.8-5.4 11.2-5.4.4-.1-.4 1.8-1.7 4.1zM497.4 633.3l-51.2 56.2 10.6 10.7c5.9 6 10.9 10.8 11.3 10.8.3 0 16.8-13.8 36.5-30.7 28-23.9 36-30.3 36.2-28.7.1 1 .6 10.6 1 21.3l.7 19.4 32.8 7.7 32.8 7.7 23.7-5.7 23.7-5.6.3-22.3c.1-13.6.6-22.1 1.2-21.9.5.2 13.6 13.3 29.1 29.3 15.5 15.9 28.4 29.1 28.8 29.3.3.1 4.1-6.6 8.5-14.8 7.3-14.2 7.7-15.2 6.3-17.3-.9-1.2-19.7-24.5-41.9-51.7l-40.4-49.5-49.4-.2-49.5-.2-51.1 56.2zM805.4 644.2c-22.5 27-41.5 49.9-42.1 50.9-1.1 1.4 0 3.4 7.8 14l9.2 12.3 2.5-2.9c23.4-27.4 59.7-68.4 60.1-68 .2.3 1.2 6.5 2.2 13.8l1.7 13.2-5.9 10c-3.2 5.4-5.7 10-5.6 10.1.7.7 64.7 15.6 66.7 15.5 2.7-.1 45.7-11.5 46.6-12.3.3-.3-2.8-5.6-6.8-11.8l-7.4-11.2 1.3-15.2c.7-8.3 1.4-16.2 1.5-17.5.2-1.9 5.5 4.6 24.6 30.3 15.2 20.3 25 32.6 26 32.6s8.3-1.7 16.5-3.8l14.7-3.7-38.8-52.5-38.8-52.5-47.6-.3-47.6-.2-40.8 49.2z"
            fill="currentColor" fill-rule="evenodd" />
        <path
            d="M529.6 695.1c-1.4 3.9-8.4 35.5-8 36 .2.4 1.8.9 3.6 1.3 4 .7 79.5-20.8 76.3-21.7-1.1-.3-16.6-4-34.5-8.2-17.9-4.2-33.5-7.9-34.7-8.2-1.4-.3-2.5 0-2.7.8zM589.8 719.9C545.2 732.8 515 742 515 742.7c0 1.2 9.8 35.5 10.3 35.8.3.3 150.7-43.2 151.1-43.6.6-.8-10.1-36.3-11-36.5-.5-.1-34.5 9.6-75.6 21.5zM826.1 705.5c-.5 1.9-2.4 9.8-4.2 17.6-3.4 15.2-3.4 15.9 2.1 15.9 2.7 0 74.7-20.3 73.3-20.7-1.6-.5-69.3-16.3-69.8-16.3-.2 0-.8 1.6-1.4 3.5zM888 726c-37.7 11-70.1 20.4-72.1 20.9l-3.7 1.1 5 17.3c2.8 9.4 5.2 17.3 5.3 17.5.4.5 143.8-40.8 144.7-41.7.6-.5-.7-5.6-7.3-28.4-1.1-3.7-2.3-6.7-2.7-6.6-.4.1-31.5 9-69.2 19.9z"
            fill="currentColor" fill-rule="evenodd" />
        <path
            d="M680.4 730.6c.4 1 1 3.2 1.3 4.9l.5 3-25.9 7.4c-14.2 4.1-27.3 7.9-29.1 8.5-3 1-1.1 1.6 24.3 7.5 15.1 3.6 27.6 6.3 27.9 6 .2-.2 2.2-8.5 4.5-18.3 4.2-18.2 4.2-19.5.4-19.6-.6 0-1.9-.3-2.9-.7-1.4-.5-1.6-.3-1 1.3zM972.3 738.7c.3 1.5.8 3.5 1.1 4.3.5 1.2-4.9 3.1-27.4 9.5-15.3 4.4-27.4 8.3-26.7 8.6 1.9 1 50.6 12.3 51.1 11.8 1-1 8.4-34.5 7.8-35-.4-.4-2-.9-3.6-1.3-2.7-.7-2.8-.6-2.3 2.1zM26 851v16h987v-32H26v16z"
            fill="currentColor" fill-rule="evenodd" />
    </symbol>
</svg>