<?xml version="1.0" standalone="no"?>
<!DOCTYPE svg PUBLIC "-//W3C//DTD SVG 20010904//EN" "http://www.w3.org/TR/2001/REC-SVG-20010904/DTD/svg10.dtd">
<svg version="1.0" xmlns="http://www.w3.org/2000/svg"
    width="360.000000pt" height="362.000000pt" viewBox="0 0 360.000000 362.000000"
    preserveAspectRatio="xMidYMid meet">
    <symbol id="voa">
        <g transform="translate(0.000000,362.000000) scale(0.100000,-0.100000)"
            fill="currentColor" fill-rule="evenodd" stroke="none">
            <path
                d="M1645 3494 c-547 -81 -985 -376 -1252 -845 -211 -369 -270 -847 -158
-1268 144 -541 554 -981 1077 -1156 204 -68 277 -79 528 -79 195 0 238 3 324
22 492 110 878 393 1125 827 208 365 268 844 156 1263 -144 542 -554 982
-1078 1157 -186 62 -279 77 -497 80 -107 2 -208 1 -225 -1z m518 -63 c209 -46
412 -133 591 -254 132 -89 333 -293 425 -431 126 -190 204 -376 252 -601 21
-96 24 -137 24 -325 0 -188 -3 -229 -24 -325 -72 -338 -213 -599 -455 -840
-238 -238 -490 -375 -819 -447 -88 -19 -132 -22 -317 -22 -185 0 -229 3 -317
22 -216 47 -417 133 -597 255 -132 89 -333 293 -425 431 -126 190 -205 377
-252 601 -21 96 -24 137 -24 325 0 187 3 229 23 323 49 226 128 414 253 603
91 137 293 342 424 431 207 140 429 229 671 268 131 21 437 13 567 -14z" />
            <path
                d="M1708 3363 c-10 -2 -18 -13 -18 -24 0 -28 -18 -59 -34 -59 -8 0 -17
15 -20 35 -6 31 -10 35 -38 35 -30 0 -30 0 -24 -42 3 -24 8 -71 12 -105 5 -49
10 -63 23 -63 29 0 39 14 43 55 4 58 34 61 55 6 14 -37 20 -41 50 -41 18 0 33
2 33 4 0 13 -40 95 -49 101 -7 4 -8 13 -2 23 4 9 11 32 14 50 7 33 0 37 -45
25z" />
            <path
                d="M1841 3344 c-51 -43 -54 -122 -6 -170 19 -19 34 -24 75 -24 44 0 56
5 81 29 24 24 29 38 29 76 0 57 -12 80 -50 100 -44 23 -94 19 -129 -11z m109
-43 c16 -31 12 -69 -10 -91 -24 -24 -30 -24 -55 -6 -22 16 -26 76 -6 100 18
22 58 20 71 -3z" />
            <path
                d="M2075 3337 c-3 -6 -13 -52 -23 -100 -13 -62 -16 -90 -8 -92 27 -9
159 -36 161 -33 1 2 5 13 9 24 6 19 1 22 -53 33 -46 9 -59 15 -54 27 4 11 14
13 39 8 61 -11 69 -10 72 13 3 19 -2 23 -36 29 -50 8 -70 20 -57 33 7 6 27 6
59 -1 39 -8 50 -7 57 3 18 29 6 35 -129 62 -22 5 -34 3 -37 -6z" />
            <path
                d="M1404 3316 c-39 -17 -74 -61 -74 -93 0 -36 25 -88 51 -107 60 -41
169 3 169 68 0 26 -45 19 -64 -9 -32 -48 -86 -18 -86 48 0 43 27 65 60 47 15
-8 27 -7 46 3 l26 14 -27 21 c-32 25 -57 27 -101 8z" />
            <path
                d="M1190 3282 c-8 -3 -20 -12 -26 -20 -6 -8 -18 -13 -27 -9 -22 8 -46
-21 -26 -34 23 -15 46 -10 75 14 27 24 30 58 4 49z" />
            <path
                d="M1235 3249 c-15 -7 -21 -20 -21 -42 -1 -18 -8 -48 -16 -67 l-15 -35
-23 47 c-21 43 -25 45 -47 35 -12 -5 -23 -14 -23 -18 0 -13 78 -179 84 -179
19 0 54 25 49 36 -3 7 3 37 13 66 l18 53 20 -47 c22 -50 32 -56 59 -35 16 11
14 19 -25 105 -23 50 -44 92 -47 91 -3 0 -15 -5 -26 -10z" />
            <path
                d="M2556 3129 c-66 -52 -72 -115 -17 -170 46 -46 92 -52 135 -18 56 44
71 108 35 153 -44 56 -108 71 -153 35z m107 -60 c13 -21 -8 -76 -35 -90 -26
-14 -57 -2 -64 26 -6 23 10 64 30 78 17 12 58 4 69 -14z" />
            <path
                d="M998 3127 c-9 -8 -16 -26 -15 -43 0 -16 0 -47 -1 -69 l-3 -40 -24 27
c-13 16 -28 35 -33 44 -8 15 -11 15 -35 -1 l-27 -17 22 -32 c93 -133 98 -138
121 -123 16 11 21 23 19 48 -1 19 2 50 6 69 l8 35 28 -42 c16 -24 32 -43 36
-43 4 0 15 9 25 19 17 19 15 23 -40 100 -31 45 -59 81 -63 81 -4 0 -15 -6 -24
-13z" />
            <path
                d="M1636 3090 c-203 -32 -430 -132 -590 -260 -317 -252 -496 -623 -496
-1030 0 -362 128 -670 384 -925 117 -116 199 -177 332 -244 350 -176 778 -176
1128 0 133 67 215 128 332 244 256 255 384 564 384 925 0 604 -395 1115 -980
1267 -79 21 -124 26 -265 28 -93 2 -197 0 -229 -5z m400 -45 c457 -79 837
-415 978 -863 39 -125 56 -240 56 -382 0 -266 -68 -490 -216 -713 -303 -454
-874 -655 -1396 -491 -163 51 -336 153 -468 274 l-65 59 45 -14 c25 -9 79 -21
120 -29 41 -8 100 -23 131 -35 67 -24 193 -37 273 -27 53 7 57 10 63 37 5 27
23 42 23 19 0 -5 21 -21 46 -36 83 -49 179 -33 241 39 15 18 39 38 53 44 33
16 338 73 420 78 39 3 69 10 74 18 6 10 15 7 36 -15 34 -33 91 -38 130 -11
l24 17 -22 -31 c-80 -113 -348 -275 -622 -378 -95 -35 -95 -35 -40 -29 156 17
323 66 465 136 166 82 364 262 449 407 125 212 194 461 184 656 -7 133 -75
253 -177 313 -42 25 -54 27 -151 26 -84 0 -116 -5 -162 -23 -32 -12 -58 -27
-58 -33 0 -6 43 -130 95 -276 52 -146 95 -269 95 -274 0 -4 -36 -8 -81 -8
l-80 0 47 -66 c68 -95 94 -164 93 -249 -1 -106 -14 -117 -17 -14 -4 150 -55
216 -174 226 -46 4 -76 13 -109 34 -129 81 -343 105 -540 60 -68 -15 -188 -60
-234 -87 -26 -15 -49 -21 -63 -17 -18 4 -24 1 -29 -15 -8 -32 -32 -35 -174
-21 -150 13 -233 8 -287 -20 -65 -34 -148 -123 -171 -184 -9 -24 -8 -31 13
-50 23 -22 63 -123 53 -133 -8 -9 -90 100 -146 194 -59 99 -103 208 -138 342
-20 75 -26 128 -30 255 -6 178 7 280 53 426 139 445 518 782 969 863 108 19
312 20 421 1z m-136 -1569 c0 -32 -13 -46 -42 -46 -22 0 -31 -6 -35 -21 -5
-16 -11 -19 -33 -14 -15 3 -56 1 -91 -5 -35 -6 -84 -14 -109 -16 -42 -5 -44
-4 -26 10 29 24 172 76 246 91 86 17 90 17 90 1z m130 -6 c-27 -21 -68 -36
-76 -27 -3 3 -1 15 6 26 8 16 20 21 53 21 l42 0 -25 -20z m204 -10 c23 -8 31
-25 24 -47 -4 -11 -111 -3 -122 8 -6 5 -30 9 -55 10 l-46 1 50 24 c51 25 91
26 149 4z m-1226 -182 c-2 -6 -10 -14 -16 -16 -7 -2 -10 2 -6 12 7 18 28 22
22 4z m452 -32 c0 -8 -4 -18 -10 -21 -5 -3 -10 3 -10 14 0 12 5 21 10 21 6 0
10 -6 10 -14z m248 -53 c-2 -10 -13 -23 -26 -29 -12 -6 -34 -22 -47 -34 -41
-38 -32 5 9 46 37 37 70 45 64 17z m109 -3 c34 -21 58 -55 48 -70 -10 -16 -20
-12 -30 12 -6 13 -24 32 -42 43 -18 11 -32 23 -33 28 0 13 24 8 57 -13z m-811
-55 c-11 -8 -29 -15 -40 -15 -20 0 -20 0 0 15 10 8 28 14 39 14 20 0 20 0 1
-14z m284 7 c0 -13 -12 -22 -22 -16 -10 6 -1 24 13 24 5 0 9 -4 9 -8z m798
-25 c-7 -14 -13 -17 -16 -9 -6 19 6 44 18 37 7 -4 6 -14 -2 -28z m452 14 c0
-11 -4 -22 -9 -25 -11 -7 -20 14 -13 32 7 19 22 14 22 -7z m-842 -33 c-18 -27
-48 -36 -48 -14 0 16 26 35 49 36 11 0 11 -4 -1 -22z m82 -9 c0 -5 -7 -6 -15
-3 -8 4 -15 13 -15 21 0 13 3 13 15 3 8 -7 15 -16 15 -21z m90 -126 l-21 -48
-19 25 c-11 14 -17 32 -13 40 3 8 8 27 10 41 3 17 14 29 31 35 25 9 27 7 30
-18 2 -15 -6 -49 -18 -75z m-125 72 c0 -23 -34 -33 -45 -14 -13 20 1 40 24 37
13 -2 21 -10 21 -23z m-131 -79 c16 -25 15 -46 -4 -46 -17 0 -43 88 -35 117
l8 28 7 -37 c4 -20 14 -48 24 -62z m172 57 c-11 -11 -17 4 -9 23 7 18 8 18 11
1 2 -10 1 -21 -2 -24z m-118 -11 c4 -38 -14 -43 -28 -6 -14 36 -12 46 8 42 11
-2 18 -14 20 -36z m-400 -8 c57 -28 66 -44 27 -44 -35 0 -86 23 -109 49 -19
21 -19 21 5 21 14 0 48 -12 77 -26z m477 -34 c-3 -5 -17 -10 -31 -10 -14 0
-22 4 -19 10 3 6 17 10 31 10 14 0 22 -4 19 -10z m38 -87 c-18 -14 -105 -18
-116 -6 -11 11 24 43 47 43 12 0 28 5 36 10 11 7 20 4 32 -13 16 -20 16 -23 1
-34z" />
            <path
                d="M1550 3005 c-328 -90 -550 -243 -717 -495 -66 -99 -107 -180 -145
-293 -29 -84 -32 -103 -32 -222 -1 -122 1 -134 26 -185 21 -43 40 -63 84 -92
31 -21 72 -40 91 -44 37 -7 135 0 153 11 6 4 10 79 10 201 l0 194 41 0 c22 0
39 3 37 8 -1 4 -19 41 -40 82 -69 144 -68 231 6 377 91 182 202 277 486 420
134 67 134 75 0 38z" />
            <path
                d="M2160 2954 c1 -36 2 -38 15 -20 15 20 15 20 14 0 0 -13 -18 -28 -60
-48 -72 -36 -78 -56 -14 -48 27 3 45 1 45 -6 0 -12 49 -22 56 -11 7 12 24 11
24 -1 0 -5 -6 -10 -13 -10 -21 0 -50 -37 -41 -52 4 -7 -1 -5 -12 4 -29 25
-130 40 -193 28 -59 -11 -133 -48 -174 -86 -15 -14 -32 -22 -37 -19 -5 3 -33
-6 -62 -21 -46 -23 -58 -25 -98 -18 -40 8 -45 12 -45 37 -1 16 -7 33 -15 38
-23 15 -123 8 -234 -17 -140 -31 -154 -37 -158 -71 -2 -20 -9 -29 -25 -31 -26
-4 -29 -12 -11 -30 7 -7 8 -12 2 -12 -6 0 -16 -11 -22 -25 -11 -23 -10 -25 7
-16 10 6 21 17 25 26 3 9 18 15 37 15 l31 0 -30 -28 c-78 -73 -96 -195 -42
-289 75 -130 260 -154 367 -47 l24 25 282 4 c155 3 307 5 338 4 l56 0 59 106
59 106 5 -79 c5 -65 11 -88 36 -128 79 -128 261 -151 368 -47 47 46 66 82 73
141 12 108 -38 192 -149 246 -85 41 -84 41 -162 21 -57 -15 -58 -15 -76 7 -11
13 -19 28 -20 34 0 5 -10 21 -22 34 -15 16 -18 25 -10 28 16 5 15 45 -2 87
-12 28 -21 35 -43 35 -15 0 -33 4 -38 8 -28 20 -75 85 -75 103 0 11 -9 29 -20
41 l-20 22 0 -40z m10 -84 c-8 -5 -19 -10 -25 -10 -5 0 -3 5 5 10 8 5 20 10
25 10 6 0 3 -5 -5 -10z m140 -202 c0 -18 -27 11 -33 35 -6 22 -6 22 14 -2 10
-13 19 -28 19 -33z m-175 32 c8 -13 -20 -24 -41 -16 -20 8 -9 26 16 26 10 0
22 -5 25 -10z m-598 -107 c-3 -10 -5 -2 -5 17 0 19 2 27 5 18 2 -10 2 -26 0
-35z m798 -7 c26 -32 33 -29 14 6 -17 31 9 19 29 -14 15 -26 15 -28 -6 -51
-18 -19 -21 -30 -16 -58 4 -19 14 -43 23 -53 15 -18 15 -18 -6 -7 -22 11 -28
27 -24 60 2 7 -2 10 -7 7 -6 -3 -19 10 -31 29 -11 20 -27 38 -36 41 -15 6 -20
40 -9 67 8 22 41 9 69 -27z m-455 20 c0 -8 -81 -59 -86 -54 -2 3 14 17 38 31
46 28 48 29 48 23z m47 -38 c-3 -8 -6 -5 -6 6 -1 11 2 17 5 13 3 -3 4 -12 1
-19z m87 -4 c3 -8 2 -12 -4 -9 -6 3 -10 10 -10 16 0 14 7 11 14 -7z m96 -30
c0 -7 -58 25 -65 36 -3 5 10 1 29 -11 20 -12 36 -23 36 -25z m-250 21 c0 -2
-10 -9 -22 -15 -22 -11 -22 -10 -4 4 21 17 26 19 26 11z m719 -9 c-2 -2 -24
-6 -49 -9 -30 -4 -38 -3 -25 3 19 8 83 14 74 6z m-912 -22 c-3 -3 -12 -4 -19
-1 -8 3 -5 6 6 6 11 1 17 -2 13 -5z m131 -13 c3 -8 -1 -12 -9 -9 -7 2 -15 10
-17 17 -3 8 1 12 9 9 7 -2 15 -10 17 -17z m762 -16 c0 -29 -41 -45 -65 -25
-21 17 -19 29 8 40 40 16 57 12 57 -15z m-1205 5 c-3 -5 -15 -10 -26 -10 -11
0 -29 -5 -41 -11 -25 -13 -35 -5 -18 16 14 17 95 22 85 5z m818 -26 c-4 -12
-8 -13 -14 -3 -9 15 -2 32 11 24 5 -3 6 -13 3 -21z m503 -8 c37 -37 43 -63 18
-73 -10 -4 -25 4 -40 20 -13 14 -31 30 -40 35 -13 7 -14 13 -5 31 16 29 27 27
67 -13z m-566 -2 c0 -12 -38 -53 -43 -48 -7 8 22 54 34 54 5 0 9 -3 9 -6z
m359 -20 c3 -16 1 -17 -13 -5 -19 16 -21 34 -3 29 6 -3 14 -13 16 -24z m-579
-4 c8 -5 11 -10 5 -10 -5 0 -17 5 -25 10 -8 5 -10 10 -5 10 6 0 17 -5 25 -10z
m262 -12 c-7 -7 -12 -8 -12 -2 0 6 3 14 7 17 3 4 9 5 12 2 2 -3 -1 -11 -7 -17z
m-922 -2 c0 -8 -4 -18 -10 -21 -5 -3 -10 -19 -10 -35 0 -33 -17 -49 -26 -25
-10 24 14 95 31 95 8 0 15 -6 15 -14z m100 -6 c0 -5 -7 -10 -15 -10 -8 0 -15
5 -15 10 0 6 7 10 15 10 8 0 15 -4 15 -10z m257 4 c-3 -3 -12 -4 -19 -1 -8 3
-5 6 6 6 11 1 17 -2 13 -5z m862 -51 c1 -31 4 -59 6 -62 8 -7 -16 -31 -30 -31
-18 0 -38 65 -31 96 4 13 13 24 22 24 8 0 17 7 20 15 9 24 11 19 13 -42z m49
32 c-3 -3 -9 2 -12 12 -6 14 -5 15 5 6 7 -7 10 -15 7 -18z m-307 -12 c-12 -20
-14 -14 -5 12 4 9 9 14 11 11 3 -2 0 -13 -6 -23z m429 12 c7 -9 10 -18 7 -21
-10 -11 -37 5 -37 21 0 19 14 19 30 0z m-1350 -5 c0 -5 -5 -10 -11 -10 -5 0
-7 5 -4 10 3 6 8 10 11 10 2 0 4 -4 4 -10z m1235 -50 c0 -7 -6 -15 -12 -17 -8
-3 -13 4 -13 17 0 13 5 20 13 18 6 -3 12 -11 12 -18z m-892 -7 c-7 -2 -21 -2
-30 0 -10 3 -4 5 12 5 17 0 24 -2 18 -5z m94 1 c-3 -3 -12 -4 -19 -1 -8 3 -5
6 6 6 11 1 17 -2 13 -5z m922 -40 c-12 -14 -14 -14 -26 2 -18 25 -16 32 10 36
26 4 34 -16 16 -38z m84 13 c-2 -33 -39 -87 -59 -87 -24 0 -27 28 -5 51 12 13
21 30 21 39 0 22 10 31 30 27 10 -2 14 -12 13 -30z m-149 -23 c9 -23 2 -28
-29 -20 -22 6 -25 9 -15 21 16 20 36 19 44 -1z m-1304 -39 c14 -8 35 -14 48
-15 13 0 20 -4 17 -10 -11 -18 -53 -10 -82 15 -31 27 -22 32 17 10z m175 -5
c-19 -21 -50 -26 -60 -10 -11 18 6 30 42 30 35 0 36 0 18 -20z m1100 -4 c65
-17 75 -46 16 -46 -39 0 -91 17 -91 30 0 5 22 32 25 30 0 -1 23 -7 50 -14z" />
            <path
                d="M1743 2036 c-103 -34 -154 -105 -161 -227 -8 -132 30 -213 121 -262
36 -19 58 -22 147 -22 115 0 142 9 199 66 50 49 64 86 69 177 7 126 -32 208
-122 254 -52 27 -190 35 -253 14z m170 -134 c67 -59 58 -210 -15 -248 -87 -45
-173 47 -154 164 15 94 107 140 169 84z" />
            <path
                d="M1050 1784 l0 -255 208 3 c227 3 246 8 278 69 31 61 10 180 -36 194
-20 6 -20 7 5 37 28 33 34 106 13 153 -22 50 -49 55 -268 55 l-200 0 0 -256z
m323 114 c21 -32 -8 -48 -89 -48 l-74 0 0 28 c0 16 3 32 7 36 4 4 38 5 77 4
51 -2 72 -7 79 -20z m15 -200 c4 -37 -24 -50 -106 -46 l-67 3 -3 38 -3 38 88
-3 c87 -3 88 -3 91 -30z" />
            <path
                d="M2236 1938 c-97 -278 -136 -392 -136 -400 0 -5 39 -7 87 -6 l87 3 9
38 9 37 69 0 68 0 11 -40 11 -40 84 0 c47 0 85 4 85 9 0 5 -38 119 -84 253
l-83 243 -90 3 -91 3 -36 -103z m131 -206 c-16 -2 -31 -1 -34 1 -4 5 11 74 24
107 3 9 12 -11 22 -45 l16 -60 -28 -3z" />
            <path
                d="M2738 2946 l-67 -73 47 -45 c77 -74 91 -78 140 -35 31 29 28 56 -15
99 -20 21 -34 41 -30 45 4 4 24 -10 45 -30 42 -41 53 -44 73 -21 12 14 5 24
-51 75 -36 32 -67 58 -70 58 -3 1 -35 -32 -72 -73z m62 -81 c18 -19 21 -28 12
-37 -15 -15 -63 27 -55 48 7 20 16 18 43 -11z" />
            <path
                d="M751 2935 c-37 -31 -55 -82 -42 -117 13 -36 77 -88 108 -88 66 0 133
81 113 135 -10 26 -12 26 -33 12 -12 -8 -21 -22 -19 -31 5 -26 -17 -56 -41
-56 -40 1 -83 52 -71 85 8 19 41 38 53 31 11 -7 43 39 34 48 -16 15 -73 4
-102 -19z" />
            <path
                d="M2907 2789 l-78 -60 38 -52 c20 -29 49 -68 65 -88 24 -32 26 -38 13
-49 -18 -15 -18 -20 0 -44 14 -18 15 -18 50 8 19 15 35 35 35 44 0 9 25 35 55
56 60 43 63 50 39 77 -16 17 -19 16 -76 -28 -46 -35 -62 -43 -71 -33 -9 9 -4
18 22 38 79 61 87 70 75 88 -17 28 -27 27 -84 -16 -30 -22 -58 -39 -64 -37
-24 8 -12 26 44 67 55 40 59 45 47 64 -8 11 -18 21 -23 22 -5 2 -44 -24 -87
-57z" />
            <path
                d="M608 2770 c-26 -16 -58 -74 -58 -107 0 -54 66 -113 126 -113 31 0 90
55 100 94 3 14 1 40 -6 57 -12 28 -14 29 -31 13 -11 -10 -19 -31 -19 -49 0
-56 -37 -71 -84 -34 -34 26 -34 82 -1 87 22 4 45 29 45 49 0 15 -47 17 -72 3z" />
            <path
                d="M3098 2534 c-49 -24 -88 -46 -88 -49 0 -10 75 -155 80 -155 3 0 12 5
20 10 12 8 11 15 -8 55 -26 54 -27 65 -7 65 8 0 25 -20 38 -45 20 -41 24 -44
41 -32 18 13 17 15 -3 56 -21 40 -21 61 -1 61 6 0 21 -23 35 -50 23 -45 28
-49 45 -40 19 10 18 14 -20 90 -22 44 -41 80 -43 79 -1 0 -41 -20 -89 -45z" />
            <path
                d="M492 2555 c-23 -10 -39 -27 -53 -59 -24 -56 -18 -86 27 -126 45 -39
109 -42 141 -7 50 55 57 109 18 156 -23 27 -37 34 -85 46 -8 2 -30 -2 -48 -10z
m86 -75 c56 -52 -12 -109 -76 -64 -21 15 -31 62 -15 77 14 15 70 6 91 -13z" />
            <path
                d="M3153 2330 c-58 -35 -69 -93 -30 -151 21 -32 70 -60 82 -47 11 10 -7
58 -21 58 -8 0 -20 12 -26 26 -11 24 -9 29 15 50 34 29 68 31 92 4 14 -16 16
-25 8 -43 -7 -15 -7 -29 0 -45 12 -27 27 -24 46 9 20 35 6 95 -29 131 -35 34
-89 38 -137 8z" />
            <path
                d="M375 2330 c-10 -16 -45 -122 -45 -136 0 -12 149 -64 183 -64 15 0 30
37 21 51 -2 4 -17 10 -34 14 -26 6 -28 9 -19 31 16 43 11 82 -13 98 -25 18
-83 21 -93 6z m59 -58 c9 -14 -6 -52 -20 -52 -20 0 -26 17 -14 40 11 21 25 26
34 12z" />
            <path
                d="M309 2055 c-7 -47 -10 -87 -8 -89 2 -2 48 -11 101 -18 110 -16 101
-22 113 67 3 28 9 60 11 71 4 17 0 22 -20 26 -23 5 -26 2 -31 -41 -9 -63 -13
-73 -28 -68 -11 3 -12 50 -1 88 3 11 -3 19 -18 22 -28 8 -29 7 -35 -48 -3 -25
-10 -48 -14 -51 -20 -12 -26 8 -18 58 5 28 7 53 6 54 -1 1 -12 4 -23 8 -21 6
-23 1 -35 -79z" />
            <path
                d="M3314 2126 c-3 -8 -4 -22 -2 -32 2 -14 -6 -20 -42 -26 -117 -20 -111
-17 -108 -46 3 -30 4 -30 106 -18 l62 8 0 -26 c0 -21 5 -26 26 -26 25 0 26 2
21 38 -3 20 -9 61 -13 90 -5 42 -10 52 -26 52 -10 0 -21 -6 -24 -14z" />
            <path
                d="M426 1894 c-4 -16 0 -30 14 -44 25 -25 25 -42 2 -63 -54 -49 -145 10
-97 63 16 18 10 60 -10 60 -23 0 -47 -39 -52 -82 -9 -88 66 -144 153 -116 67
22 91 108 49 174 -21 33 -52 37 -59 8z" />
            <path
                d="M3170 1842 c0 -94 15 -122 65 -122 21 0 37 6 43 16 6 11 11 13 16 5
9 -15 59 -14 74 1 7 7 12 44 12 95 l0 83 -105 0 -105 0 0 -78z m80 -22 c0 -29
-4 -40 -15 -40 -11 0 -15 11 -15 40 0 29 4 40 15 40 11 0 15 -11 15 -40z m78
3 c-2 -21 -7 -38 -13 -38 -5 0 -11 17 -13 38 -3 29 0 37 13 37 13 0 16 -8 13
-37z" />
            <path
                d="M3190 1663 c-56 -50 -50 -147 11 -178 45 -24 111 -19 138 9 56 59 44
153 -23 181 -54 23 -91 19 -126 -12z m123 -65 c21 -25 21 -32 1 -52 -33 -34
-114 -9 -114 35 0 26 40 51 70 44 14 -3 33 -15 43 -27z" />
            <path
                d="M408 1661 c-9 -15 -15 -17 -29 -8 -28 17 -69 -6 -69 -39 0 -49 22
-154 32 -154 10 0 191 32 195 34 5 4 -29 161 -38 172 -17 21 -76 18 -91 -5z
m62 -58 c0 -10 3 -29 7 -42 5 -19 2 -22 -13 -19 -17 3 -38 60 -26 73 12 12 32
4 32 -12z m-80 -15 c0 -7 3 -23 6 -35 5 -17 2 -23 -9 -23 -8 0 -17 10 -21 23
-9 35 -7 47 9 47 8 0 15 -6 15 -12z" />
            <path
                d="M3034 1172 c-17 -10 -94 -135 -89 -143 3 -3 31 -22 62 -41 32 -19 70
-42 84 -51 l26 -18 42 70 c22 38 41 79 41 90 0 24 -48 64 -68 56 -8 -3 -25 6
-38 20 -24 26 -40 30 -60 17z m36 -74 c0 -7 -9 -24 -19 -37 -23 -30 -39 -10
-20 25 13 25 39 33 39 12z m67 -39 c4 -22 -30 -60 -45 -50 -10 6 -9 14 5 39
18 32 36 37 40 11z" />
            <path
                d="M545 1114 c-33 -8 -70 -16 -83 -19 -22 -5 -22 -6 -6 -34 11 -18 23
-27 32 -24 22 9 53 -37 41 -59 -7 -12 -5 -26 4 -44 l14 -27 72 86 c72 85 72
86 55 111 -19 30 -39 31 -129 10z m50 -64 c-13 -15 -22 -17 -29 -10 -12 12 8
30 33 30 11 0 10 -5 -4 -20z" />
            <path
                d="M657 954 l-78 -66 23 -27 c69 -79 94 -101 115 -101 26 0 66 35 60 53
-2 7 10 17 27 22 25 8 32 16 34 40 2 24 -8 42 -50 88 l-53 57 -78 -66z m109
-40 c11 -16 14 -28 7 -35 -12 -12 -58 35 -48 50 10 17 23 13 41 -15z m-57 -50
c21 -27 20 -44 -2 -44 -16 1 -49 48 -42 60 10 16 22 12 44 -16z" />
            <path
                d="M2865 947 c-19 -19 -37 -46 -41 -61 -15 -59 53 -136 120 -136 44 0
106 67 106 115 0 30 -8 45 -39 76 -52 52 -98 54 -146 6z m110 -52 c14 -13 25
-31 25 -39 0 -20 -28 -46 -49 -46 -28 0 -71 39 -71 64 0 50 55 62 95 21z" />
            <path
                d="M839 844 c-11 -14 -10 -19 10 -35 l23 -19 -53 -60 -53 -61 20 -20 20
-20 53 56 c29 30 55 55 58 55 4 0 15 -8 25 -17 17 -15 19 -15 33 3 14 18 10
23 -48 76 -34 32 -65 57 -68 58 -4 0 -13 -7 -20 -16z" />
            <path
                d="M2760 819 c-86 -72 -101 -89 -90 -108 9 -18 7 -18 -19 -8 -57 21
-141 -42 -141 -106 0 -73 71 -134 134 -116 55 16 107 86 87 118 -14 21 -48 4
-54 -28 -12 -56 -88 -44 -103 16 -9 35 6 57 42 61 17 2 46 20 70 43 l41 40 54
-60 54 -60 24 18 25 19 -52 58 c-29 32 -52 62 -52 66 0 4 9 13 19 20 15 9 17
16 10 30 -12 23 -18 22 -49 -3z" />
            <path
                d="M983 691 c-107 -67 -65 -211 60 -211 69 0 129 100 96 158 -34 61
-105 85 -156 53z m95 -53 c19 -19 14 -53 -13 -82 -26 -29 -37 -31 -66 -16 -25
14 -24 51 2 84 22 27 57 34 77 14z" />
            <path
                d="M1142 518 l-40 -93 27 -12 c25 -11 27 -10 49 35 l23 47 -6 -56 c-5
-52 -3 -57 18 -63 17 -5 30 3 59 37 43 48 47 44 17 -14 -11 -23 -19 -42 -17
-44 10 -8 50 -26 53 -23 6 7 75 172 75 180 0 4 -14 15 -32 24 l-32 17 -47 -54
c-31 -35 -47 -47 -44 -34 2 11 6 41 9 67 5 45 4 49 -24 63 -16 8 -33 15 -38
15 -5 0 -28 -42 -50 -92z" />
            <path
                d="M2428 603 c-11 -3 -16 -14 -16 -31 0 -15 -7 -45 -17 -67 l-17 -40
-19 40 c-10 22 -20 44 -22 49 -2 7 -37 -5 -54 -19 -4 -3 68 -169 78 -179 12
-13 60 10 54 26 -3 8 3 38 13 67 l18 54 22 -51 c21 -49 23 -51 47 -40 14 6 25
15 25 20 0 22 -74 178 -84 177 -6 -1 -19 -3 -28 -6z" />
            <path
                d="M2163 502 c-34 -9 -64 -20 -68 -23 -3 -3 1 -35 9 -70 13 -55 13 -65
1 -79 -8 -9 -12 -25 -8 -38 4 -17 10 -21 27 -16 48 14 58 44 42 127 -6 33 -4
38 16 46 13 5 26 7 29 5 4 -2 15 -36 24 -75 17 -68 18 -70 44 -64 14 4 27 8
29 10 2 1 -8 45 -21 96 -27 108 -26 107 -124 81z" />
            <path
                d="M1455 501 c-75 -32 -92 -155 -28 -197 17 -10 48 -18 76 -18 41 -1 52
3 72 27 28 32 41 90 29 125 -18 50 -100 84 -149 63z m81 -66 c34 -51 -26 -132
-71 -95 -22 18 -19 76 5 100 27 27 46 25 66 -5z" />
            <path
                d="M2013 472 c-13 -2 -23 -8 -23 -14 0 -14 -59 -88 -71 -88 -5 0 -9 20
-9 45 0 43 -1 45 -30 45 -28 0 -30 -2 -30 -37 0 -21 3 -68 7 -105 6 -67 6 -68
34 -68 20 0 29 5 29 16 0 20 60 95 71 88 5 -3 9 -25 9 -50 0 -35 3 -44 18 -44
41 1 45 13 37 114 -4 53 -10 97 -13 99 -4 2 -17 1 -29 -1z" />
            <path
                d="M1636 425 c-3 -22 -7 -68 -10 -101 l-4 -62 37 -6 c113 -18 161 0 161
62 0 42 -19 58 -80 66 -70 9 -54 25 20 19 60 -6 60 -6 60 21 0 32 -5 34 -102
38 l-77 3 -5 -40z m108 -91 c30 -12 18 -34 -19 -34 -28 0 -35 4 -35 20 0 20
22 26 54 14z" />
        </g>
    </symbol>
</svg>