<svg xmlns="http://www.w3.org/2000/svg" viewBox="0 0 512 512">
    <symbol id="premium_product">
        <path
            d="M486.4 460.8c-1.476 0-2.944.128-4.386.384-5.888-10.607-17.092-17.451-29.747-17.451-12.655 0-23.859 6.844-29.747 17.451a25.094 25.094 0 0 0-4.386-.384c-14.114 0-25.6 11.486-25.6 25.6 0 3.004.614 5.845 1.579 8.533H358.4v-51.2h42.667a8.536 8.536 0 0 0 8.533-8.533V93.867a8.536 8.536 0 0 0-8.533-8.533h-256a8.536 8.536 0 0 0-8.533 8.533v409.6a8.536 8.536 0 0 0 8.533 8.533H486.4c14.114 0 25.6-11.486 25.6-25.6s-11.486-25.6-25.6-25.6zm-128-358.4h34.133v51.2H358.4v-51.2zm0 68.267h34.133v51.2H358.4v-51.2zm0 68.266h34.133v51.2H358.4v-51.2zm0 68.267h34.133v51.2H358.4v-51.2zm0 68.267h34.133v51.2H358.4v-51.2zM187.733 494.933H153.6v-51.2h34.133v51.2zm0-68.266H153.6v-51.2h34.133v51.2zm0-68.267H153.6v-51.2h34.133v51.2zm0-68.267H153.6v-51.2h34.133v51.2zm0-68.266H153.6v-51.2h34.133v51.2zm0-68.267H153.6v-51.2h34.133v51.2zm51.2 341.333H204.8v-51.2h34.133v51.2zm0-68.266H204.8v-51.2h34.133v51.2zm0-68.267H204.8v-51.2h34.133v51.2zm0-68.267H204.8v-51.2h34.133v51.2zm0-68.266H204.8v-51.2h34.133v51.2zm0-68.267H204.8v-51.2h34.133v51.2zm51.2 341.333H256v-51.2h34.133v51.2zm0-68.266H256v-51.2h34.133v51.2zm0-68.267H256v-51.2h34.133v51.2zm0-68.267H256v-51.2h34.133v51.2zm0-68.266H256v-51.2h34.133v51.2zm0-68.267H256v-51.2h34.133v51.2zm51.2 341.333H307.2v-51.2h34.133v51.2zm0-68.266H307.2v-51.2h34.133v51.2zm0-68.267H307.2v-51.2h34.133v51.2zm0-68.267H307.2v-51.2h34.133v51.2zm0-68.266H307.2v-51.2h34.133v51.2zm0-68.267H307.2v-51.2h34.133v51.2zM486.4 494.933h-68.267c-4.702 0-8.533-3.831-8.533-8.533s3.831-8.533 8.533-8.533c1.638 0 3.191.469 4.625 1.391a8.558 8.558 0 0 0 7.834.734 8.51 8.51 0 0 0 5.103-5.982c1.801-7.774 8.619-13.21 16.572-13.21 7.953 0 14.771 5.436 16.572 13.21a8.51 8.51 0 0 0 5.103 5.982 8.559 8.559 0 0 0 7.834-.734c5.547-3.584 13.167.802 13.158 7.142-.001 4.702-3.832 8.533-8.534 8.533z"
            fill="currentColor" fill-rule="evenodd"
        />
        <path
            d="M187.733 59.733v-25.6h59.733a8.536 8.536 0 0 0 8.533-8.533v-8.533h34.133V25.6a8.536 8.536 0 0 0 8.533 8.533H358.4V51.2H213.333c-4.71 0-8.533 3.823-8.533 8.533s3.823 8.533 8.533 8.533h213.333V422.22c0 4.71 3.823 8.533 8.533 8.533s8.533-3.823 8.533-8.533V59.733a8.536 8.536 0 0 0-8.533-8.533h-59.733V25.6a8.536 8.536 0 0 0-8.533-8.533H307.2V8.533A8.536 8.536 0 0 0 298.667 0h-51.2a8.536 8.536 0 0 0-8.533 8.533v8.533H179.2a8.536 8.536 0 0 0-8.533 8.533v25.6h-59.733a8.536 8.536 0 0 0-8.533 8.533v435.2H51.2v-34.995c19.447-3.968 34.133-21.197 34.133-41.805 0-1.109-.486-110.933-42.667-110.933C.486 307.2 0 417.024 0 418.133c0 20.608 14.686 37.837 34.133 41.805v34.995h-25.6c-4.71 0-8.533 3.823-8.533 8.533S3.823 512 8.533 512h102.4a8.536 8.536 0 0 0 8.533-8.533v-435.2H179.2c4.71 0 8.533-3.823 8.533-8.534zm-170.666 358.4c0-42.513 11.418-93.867 25.6-93.867 14.182 0 25.6 51.354 25.6 93.867 0 14.114-11.486 25.6-25.6 25.6s-25.6-11.486-25.6-25.6z"
            fill="currentColor" fill-rule="evenodd"
        />
    </symbol>
</svg>